<?xml version="1.0" standalone="no"?>
<svg xmlns:xlink="http://www.w3.org/1999/xlink" id="wave" style="transform:rotate(180deg); transition: 0.3s" viewBox="0 0 1440 490" version="1.1" xmlns="http://www.w3.org/2000/svg"><defs><linearGradient id="sw-gradient-0" x1="0" x2="0" y1="1" y2="0"><stop stop-color="rgba(79.699, 71.637, 232.552, 1)" offset="0%"/><stop stop-color="rgba(11, 114.489, 255, 1)" offset="100%"/></linearGradient></defs><path style="transform:translate(0, 0px); opacity:1" fill="url(#sw-gradient-0)" d="M0,196L80,179.7C160,163,320,131,480,122.5C640,114,800,131,960,187.8C1120,245,1280,343,1440,318.5C1600,294,1760,147,1920,81.7C2080,16,2240,33,2400,73.5C2560,114,2720,180,2880,179.7C3040,180,3200,114,3360,122.5C3520,131,3680,212,3840,204.2C4000,196,4160,98,4320,106.2C4480,114,4640,229,4800,245C4960,261,5120,180,5280,155.2C5440,131,5600,163,5760,155.2C5920,147,6080,98,6240,73.5C6400,49,6560,49,6720,65.3C6880,82,7040,114,7200,163.3C7360,212,7520,278,7680,326.7C7840,376,8000,408,8160,367.5C8320,327,8480,212,8640,204.2C8800,196,8960,294,9120,277.7C9280,261,9440,131,9600,89.8C9760,49,9920,98,10080,138.8C10240,180,10400,212,10560,261.3C10720,310,10880,376,11040,408.3C11200,441,11360,441,11440,441L11520,441L11520,490L11440,490C11360,490,11200,490,11040,490C10880,490,10720,490,10560,490C10400,490,10240,490,10080,490C9920,490,9760,490,9600,490C9440,490,9280,490,9120,490C8960,490,8800,490,8640,490C8480,490,8320,490,8160,490C8000,490,7840,490,7680,490C7520,490,7360,490,7200,490C7040,490,6880,490,6720,490C6560,490,6400,490,6240,490C6080,490,5920,490,5760,490C5600,490,5440,490,5280,490C5120,490,4960,490,4800,490C4640,490,4480,490,4320,490C4160,490,4000,490,3840,490C3680,490,3520,490,3360,490C3200,490,3040,490,2880,490C2720,490,2560,490,2400,490C2240,490,2080,490,1920,490C1760,490,1600,490,1440,490C1280,490,1120,490,960,490C800,490,640,490,480,490C320,490,160,490,80,490L0,490Z"/></svg>